<svg width="115" height="115" viewBox="0 0 115 115" fill="none" xmlns="http://www.w3.org/2000/svg">
<mask id="mask0_302_565" style="mask-type:alpha" maskUnits="userSpaceOnUse" x="0" y="0" width="115" height="115">
<rect width="115" height="115" fill="#D9D9D9"/>
</mask>
<g mask="url(#mask0_302_565)">
<path d="M57.5001 105.417C49.0348 105.417 42.1268 104.079 36.7761 101.404C31.4254 98.7283 28.7501 95.2743 28.7501 91.0417C28.7501 88.2466 29.908 85.8108 32.224 83.7344C34.54 81.658 37.7344 80.0209 41.8074 78.823L44.5626 87.9271C43.2049 88.3264 41.9671 88.8256 40.849 89.4245C39.731 90.0235 38.9723 90.5625 38.573 91.0417C39.6112 92.3195 42.007 93.4375 45.7605 94.3959C49.5139 95.3542 53.4271 95.8334 57.5001 95.8334C61.573 95.8334 65.5061 95.3542 69.2995 94.3959C73.0929 93.4375 75.5087 92.3195 76.5469 91.0417C76.1476 90.5625 75.3889 90.0235 74.2709 89.4245C73.1528 88.8256 71.915 88.3264 70.5574 87.9271L73.3126 78.823C77.3855 80.0209 80.56 81.658 82.836 83.7344C85.112 85.8108 86.2501 88.2466 86.2501 91.0417C86.2501 95.2743 83.5747 98.7283 78.224 101.404C72.8733 104.079 65.9653 105.417 57.5001 105.417ZM57.5001 73.4323C58.9376 70.7969 60.4549 68.3811 62.0521 66.1849C63.6494 63.9888 65.2067 61.8924 66.724 59.8959C69.6789 56.0625 72.0348 52.6085 73.7917 49.5339C75.5487 46.4592 76.4271 42.6459 76.4271 38.0938C76.4271 32.823 74.5903 28.3507 70.9167 24.6771C67.2431 21.0035 62.7709 19.1667 57.5001 19.1667C52.2292 19.1667 47.757 21.0035 44.0834 24.6771C40.4098 28.3507 38.573 32.823 38.573 38.0938C38.573 42.6459 39.4515 46.4592 41.2084 49.5339C42.9653 52.6085 45.3212 56.0625 48.2761 59.8959C49.7935 61.8924 51.3508 63.9888 52.948 66.1849C54.5452 68.3811 56.0626 70.7969 57.5001 73.4323ZM57.5001 91.0417C56.6216 91.0417 55.823 90.7822 55.1042 90.2631C54.3855 89.744 53.8664 89.0452 53.5469 88.1667C51.7101 82.4966 49.3942 77.7448 46.599 73.9115C43.8039 70.0782 41.0886 66.4046 38.4532 62.8907C35.8976 59.3768 33.6815 55.7431 31.8047 51.9896C29.928 48.2362 28.9896 43.6042 28.9896 38.0938C28.9896 30.1077 31.7449 23.3594 37.2553 17.849C42.7657 12.3386 49.514 9.58337 57.5001 9.58337C65.4862 9.58337 72.2344 12.3386 77.7449 17.849C83.2553 23.3594 86.0105 30.1077 86.0105 38.0938C86.0105 43.6042 85.0921 48.2362 83.2553 51.9896C81.4185 55.7431 79.1824 59.3768 76.5469 62.8907C73.9914 66.4046 71.2961 70.0782 68.461 73.9115C65.6259 77.7448 63.29 82.4966 61.4532 88.1667C61.1337 89.0452 60.6146 89.744 59.8959 90.2631C59.1771 90.7822 58.3785 91.0417 57.5001 91.0417ZM57.5001 48.2761C60.2952 48.2761 62.691 47.2778 64.6876 45.2813C66.6841 43.2848 67.6824 40.8889 67.6824 38.0938C67.6824 35.2987 66.6841 32.9028 64.6876 30.9063C62.691 28.9098 60.2952 27.9115 57.5001 27.9115C54.7049 27.9115 52.3091 28.9098 50.3126 30.9063C48.316 32.9028 47.3178 35.2987 47.3178 38.0938C47.3178 40.8889 48.316 43.2848 50.3126 45.2813C52.3091 47.2778 54.7049 48.2761 57.5001 48.2761Z" fill="white"/>
</g>
</svg>
